{
    "asset" : {
        "generator" : "Khronos glTF Blender I/O v1.6.16",
        "version" : "2.0"
    },
    "scene" : 0,
    "scenes" : [
        {
            "name" : "Scene",
            "nodes" : [
                0,
                1,
                2,
                3,
                4,
                5,
                6
            ]
        }
    ],
    "nodes" : [
        {
            "name" : "Empty",
            "scale" : [
                1.273356556892395,
                1.273356556892395,
                1.273356556892395
            ]
        },
        {
            "name" : "Point",
            "translation" : [
                -0.13794994354248047,
                1.7931053638458252,
                1.5705727338790894
            ]
        },
        {
            "name" : "cam_screenshot",
            "translation" : [
                0.015475000254809856,
                0.42085298895835876,
                4.336366653442383
            ]
        },
        {
            "mesh" : 0,
            "name" : "CAN_Kurtka1"
        },
        {
            "mesh" : 1,
            "name" : "hoodies_01"
        },
        {
            "name" : "Camera",
            "rotation" : [
                0.6644299626350403,
                0.0016196061624214053,
                -0.001439912710338831,
                0.7473474144935608
            ],
            "translation" : [
                0.015475153923034668,
                0.4208531975746155,
                4.33636999130249
            ]
        },
        {
            "name" : "Sun",
            "rotation" : [
                -0.6441593766212463,
                -0.7270148396492004,
                0.12153581529855728,
                0.2042967826128006
            ],
            "translation" : [
                3.382298231124878,
                0.7421835064888,
                -1.5548043251037598
            ]
        }
    ],
    "materials" : [
        {
            "alphaMode" : "BLEND",
            "doubleSided" : true,
            "name" : "CANVAS",
            "pbrMetallicRoughness" : {
                "baseColorTexture" : {
                    "index" : 0
                },
                "metallicFactor" : 0,
                "roughnessFactor" : 0.5090909004211426
            }
        },
        {
            "doubleSided" : true,
            "name" : "hoodies",
            "normalTexture" : {
                "index" : 1
            },
            "pbrMetallicRoughness" : {
                "baseColorFactor" : [
                    1,
                    0.4942217171192169,
                    0.31277763843536377,
                    1
                ],
                "baseColorTexture" : {
                    "index" : 2
                },
                "metallicFactor" : 0,
                "roughnessFactor" : 0.949999988079071
            }
        }
    ],
    "meshes" : [
        {
            "name" : "Mesh.007",
            "primitives" : [
                {
                    "attributes" : {
                        "POSITION" : 0,
                        "NORMAL" : 1,
                        "TEXCOORD_0" : 2
                    },
                    "indices" : 3,
                    "material" : 0
                }
            ]
        },
        {
            "name" : "Mesh.004",
            "primitives" : [
                {
                    "attributes" : {
                        "POSITION" : 4,
                        "NORMAL" : 5,
                        "TEXCOORD_0" : 6
                    },
                    "indices" : 7,
                    "material" : 1
                }
            ]
        }
    ],
    "textures" : [
        {
            "sampler" : 0,
            "source" : 0
        },
        {
            "sampler" : 1,
            "source" : 1
        },
        {
            "sampler" : 1,
            "source" : 2
        }
    ],
    "images" : [
        {
            "mimeType" : "image/png",
            "name" : "A_Mask",
            "uri" : "A_Mask.png"
        },
        {
            "mimeType" : "image/jpeg",
            "name" : "norm",
            "uri" : "norm.jpg"
        },
        {
            "mimeType" : "image/jpeg",
            "name" : "aoshka",
            "uri" : "aoshka.jpg"
        }
    ],
    "accessors" : [
        {
            "bufferView" : 0,
            "componentType" : 5126,
            "count" : 7674,
            "max" : [
                0.6343898773193359,
                0.5771135687828064,
                0.4152112901210785
            ],
            "min" : [
                -0.6380645632743835,
                -0.7482351660728455,
                -0.29867488145828247
            ],
            "type" : "VEC3"
        },
        {
            "bufferView" : 1,
            "componentType" : 5126,
            "count" : 7674,
            "type" : "VEC3"
        },
        {
            "bufferView" : 2,
            "componentType" : 5126,
            "count" : 7674,
            "type" : "VEC2"
        },
        {
            "bufferView" : 3,
            "componentType" : 5123,
            "count" : 41151,
            "type" : "SCALAR"
        },
        {
            "bufferView" : 4,
            "componentType" : 5126,
            "count" : 20767,
            "max" : [
                0.6286073923110962,
                0.7559274435043335,
                0.4091203212738037
            ],
            "min" : [
                -0.6321967840194702,
                -0.8269639611244202,
                -0.35658693313598633
            ],
            "type" : "VEC3"
        },
        {
            "bufferView" : 5,
            "componentType" : 5126,
            "count" : 20767,
            "type" : "VEC3"
        },
        {
            "bufferView" : 6,
            "componentType" : 5126,
            "count" : 20767,
            "type" : "VEC2"
        },
        {
            "bufferView" : 7,
            "componentType" : 5123,
            "count" : 102708,
            "type" : "SCALAR"
        }
    ],
    "bufferViews" : [
        {
            "buffer" : 0,
            "byteLength" : 92088,
            "byteOffset" : 0
        },
        {
            "buffer" : 0,
            "byteLength" : 92088,
            "byteOffset" : 92088
        },
        {
            "buffer" : 0,
            "byteLength" : 61392,
            "byteOffset" : 184176
        },
        {
            "buffer" : 0,
            "byteLength" : 82302,
            "byteOffset" : 245568
        },
        {
            "buffer" : 0,
            "byteLength" : 249204,
            "byteOffset" : 327872
        },
        {
            "buffer" : 0,
            "byteLength" : 249204,
            "byteOffset" : 577076
        },
        {
            "buffer" : 0,
            "byteLength" : 166136,
            "byteOffset" : 826280
        },
        {
            "buffer" : 0,
            "byteLength" : 205416,
            "byteOffset" : 992416
        }
    ],
    "samplers" : [
        {
            "magFilter" : 9729,
            "minFilter" : 9987,
            "wrapS" : 33071,
            "wrapT" : 33071
        },
        {
            "magFilter" : 9729,
            "minFilter" : 9987
        }
    ],
    "buffers" : [
        {
            "byteLength" : 1197832,
            "uri" : "clothes_configurator.bin"
        }
    ]
}
